<svg width="77" height="77" viewBox="0 0 77 77" fill="none" xmlns="http://www.w3.org/2000/svg">
<g filter="url(#filter0_d_36_168)">
<rect x="3.67773" y="0.590454" width="69.8545" height="69.8545" rx="20.9563" fill="#C4C4C4" fill-opacity="0.1"/>
<g clip-path="url(#clip0_36_168)">
<g clip-path="url(#clip1_36_168)">
<path d="M49.291 53.3555V49.2807C49.291 47.1192 48.4324 45.0463 46.904 43.518C45.3757 41.9896 43.3028 41.131 41.1413 41.131H24.8419C22.6805 41.131 20.6076 41.9896 19.0792 43.518C17.5509 45.0463 16.6923 47.1192 16.6923 49.2807V53.3555" stroke="white" stroke-width="2.99376" stroke-linecap="round" stroke-linejoin="round"/>
<path d="M32.9917 32.9813C37.4926 32.9813 41.1414 29.3325 41.1414 24.8316C41.1414 20.3306 37.4926 16.6819 32.9917 16.6819C28.4907 16.6819 24.842 20.3306 24.842 24.8316C24.842 29.3325 28.4907 32.9813 32.9917 32.9813Z" stroke="white" stroke-width="2.99376" stroke-linecap="round" stroke-linejoin="round"/>
<path d="M61.5155 53.3554V49.2806C61.5142 47.4749 60.9132 45.7207 59.8069 44.2936C58.7006 42.8665 57.1516 41.8472 55.4033 41.3958" stroke="white" stroke-width="2.99376" stroke-linecap="round" stroke-linejoin="round"/>
<path d="M47.2536 16.9468C49.0066 17.3956 50.5604 18.4151 51.67 19.8446C52.7796 21.2741 53.3818 23.0322 53.3818 24.8418C53.3818 26.6514 52.7796 28.4095 51.67 29.839C50.5604 31.2684 49.0066 32.288 47.2536 32.7368" stroke="white" stroke-width="2.99376" stroke-linecap="round" stroke-linejoin="round"/>
</g>
</g>
</g>
<defs>
<filter id="filter0_d_36_168" x="0.883556" y="0.590454" width="75.4428" height="75.4428" filterUnits="userSpaceOnUse" color-interpolation-filters="sRGB">
<feFlood flood-opacity="0" result="BackgroundImageFix"/>
<feColorMatrix in="SourceAlpha" type="matrix" values="0 0 0 0 0 0 0 0 0 0 0 0 0 0 0 0 0 0 127 0" result="hardAlpha"/>
<feOffset dy="2.79418"/>
<feGaussianBlur stdDeviation="1.39709"/>
<feComposite in2="hardAlpha" operator="out"/>
<feColorMatrix type="matrix" values="0 0 0 0 0 0 0 0 0 0 0 0 0 0 0 0 0 0 0.1 0"/>
<feBlend mode="normal" in2="BackgroundImageFix" result="effect1_dropShadow_36_168"/>
<feBlend mode="normal" in="SourceGraphic" in2="effect1_dropShadow_36_168" result="shape"/>
</filter>
<clipPath id="clip0_36_168">
<rect width="48.8981" height="48.8981" fill="white" transform="translate(14.1559 11.0686)"/>
</clipPath>
<clipPath id="clip1_36_168">
<rect width="48.8981" height="48.8981" fill="white" transform="translate(14.6548 10.5697)"/>
</clipPath>
</defs>
</svg>
