<svg width="50" height="50" viewBox="0 0 50 50" fill="none" xmlns="http://www.w3.org/2000/svg">
<path d="M29.2973 30.642V7.70061C29.2973 6.34972 28.7607 5.05415 27.8054 4.09892C26.8502 3.1437 25.5546 2.60706 24.2037 2.60706C22.8528 2.60706 21.5573 3.1437 20.6021 4.09892C19.6468 5.05415 19.1102 6.34972 19.1102 7.70061V30.642C17.4747 31.7347 16.234 33.3245 15.5713 35.1765C14.9087 37.0284 14.8591 39.0444 15.4301 40.9267C16.0011 42.8089 17.1622 44.4577 18.7421 45.6294C20.322 46.8011 22.2368 47.4337 24.2037 47.4337C26.1707 47.4337 28.0855 46.8011 29.6654 45.6294C31.2453 44.4577 32.4064 42.8089 32.9774 40.9267C33.5483 39.0444 33.4988 37.0284 32.8362 35.1765C32.1735 33.3245 30.9328 31.7347 29.2973 30.642Z" stroke="white" stroke-width="2.99376" stroke-linecap="round" stroke-linejoin="round"/>
</svg>
